HIERARCHY
ROOT hip
{
	OFFSET 0.000000 0.000000 0.000000 
	CHANNELS 6 Xposition Yposition Zposition Xrotation Zrotation Yrotation
	JOINT abdomen
	{
		OFFSET 0.000000 3.402643 0.000000 
		CHANNELS 3 Xrotation Zrotation Yrotation
		JOINT chest
		{
			OFFSET 0.000000 8.438565 -0.680529 
			CHANNELS 3 Xrotation Zrotation Yrotation
			JOINT neck
			{
				OFFSET 0.000000 10.207942 -0.272212 
				CHANNELS 3 Xrotation Zrotation Yrotation
				JOINT head
				{
					OFFSET 0.000000 3.130431 0.000000 
					CHANNELS 3 Xrotation Zrotation Yrotation
					End Site
					{
						OFFSET 0.000000 3.130435 0.000000 
					}
				}
			}
			JOINT lCollar
			{
				OFFSET 3.470700 6.669187 -0.816635 
				CHANNELS 3 Yrotation Zrotation Xrotation
				JOINT lShldr
				{
					OFFSET 3.198488 0.000000 0.000000 
					CHANNELS 3 Zrotation Yrotation Xrotation
					JOINT lForeArm
					{
						OFFSET 10.139888 0.000000 0.000000 
						CHANNELS 3 Yrotation Zrotation Xrotation
						JOINT lHand
						{
							OFFSET 8.370511 0.000000 0.000000 
							CHANNELS 3 Zrotation Yrotation Xrotation
							End Site
							{
								OFFSET 4.083176 0.000000 0.000000 
							}
						}
					}
				}
			}
			JOINT rCollar
			{
				OFFSET -3.470700 6.669187 -0.816635 
				CHANNELS 3 Yrotation Zrotation Xrotation
				JOINT rShldr
				{
					OFFSET -3.198488 0.000000 0.000000 
					CHANNELS 3 Zrotation Yrotation Xrotation
					JOINT rForeArm
					{
						OFFSET -10.139888 0.000000 0.000000 
						CHANNELS 3 Yrotation Zrotation Xrotation
						JOINT rHand
						{
							OFFSET -8.370511 0.000000 0.000000 
							CHANNELS 3 Zrotation Yrotation Xrotation
							End Site
							{
								OFFSET -4.083176 0.000000 0.000000 
							}
						}
					}
				}
			}
		}
	}
	JOINT lThigh
	{
		OFFSET 5.308129 -1.633274 1.361059 
		CHANNELS 3 Xrotation Zrotation Yrotation
		JOINT lShin
		{
			OFFSET -2.041588 -20.007561 0.000000 
			CHANNELS 3 Xrotation Zrotation Yrotation
			JOINT lFoot
			{
				OFFSET 0.000000 -19.190928 -1.224953 
				CHANNELS 3 Xrotation Yrotation Zrotation
				End Site
				{
					OFFSET 0.000000 -2.449906 4.627600 
				}
			}
		}
	}
	JOINT rThigh
	{
		OFFSET -5.308129 -1.633274 1.361059 
		CHANNELS 3 Xrotation Zrotation Yrotation
		JOINT rShin
		{
			OFFSET 2.041588 -20.007561 0.000000 
			CHANNELS 3 Xrotation Zrotation Yrotation
			JOINT rFoot
			{
				OFFSET 0.000000 -19.190928 -1.224953 
				CHANNELS 3 Xrotation Yrotation Zrotation
				End Site
				{
					OFFSET 0.000000 -2.449906 4.627600 
				}
			}
		}
	}
}
MOTION
Frames: 16
Frame Time: 0.011111
-18.961668 48.525055 -42.154804 -12.364074 -6.811530 110.750938 10.848680 6.917331 -0.164019 -5.148287 4.445590 -0.139645 -11.598694 -9.169866 -4.735844 19.703035 16.100496 -8.141332 12.413046 -14.960623 4.251975 -66.670517 -35.340809 29.522440 -62.859032 10.079466 12.637909 6.992188 16.005859 -52.360588 -6.427974 8.898234 2.089853 53.880547 38.916210 15.891733 64.310448 -10.165110 13.302461 -7.001954 -15.996095 67.509766 -42.629608 17.125488 2.497004 67.940323 -3.834303 -5.060282 -27.737850 -9.263704 -4.038062 -5.259458 5.308922 -4.947382 29.904228 5.261024 2.200461 -33.098476 9.608658 4.402637 
-18.758057 48.516296 -42.294922 -12.924617 -6.758944 110.568459 11.027931 7.505612 0.509261 -5.246443 4.087253 0.025654 -11.368167 -8.772770 -4.823162 19.135725 15.859532 -8.329845 12.413046 -14.960623 4.251975 -66.780365 -35.313015 28.984486 -62.966782 10.087856 12.684929 6.992188 16.005859 -52.751213 -6.427974 8.898234 2.089853 53.682327 39.575596 16.266535 64.633888 -10.181321 13.455762 -7.001954 -15.996095 68.066406 -43.859688 17.789410 1.912351 67.360649 -3.891926 -5.027809 -27.931355 -8.988066 -3.880084 -4.653402 5.893247 -4.670105 29.087460 5.271319 2.120613 -32.876076 9.779653 4.513436 
-18.497829 48.501286 -42.441296 -12.832523 -6.781839 110.516258 11.209568 7.264659 0.891545 -5.501052 3.914119 0.119074 -10.938420 -8.456322 -4.993332 18.535549 15.825191 -8.598450 12.413046 -14.960623 4.251975 -65.990524 -34.674381 29.266863 -63.567524 10.123177 12.958001 6.992188 16.005859 -52.038319 -6.427974 8.898234 2.089853 53.405476 39.789173 17.061615 65.158661 -10.194593 13.687864 -7.001954 -15.996095 69.072266 -44.469097 17.742495 1.615779 66.585991 -3.921967 -4.989233 -28.102198 -8.903738 -3.842335 -4.069917 5.661325 -4.811463 28.560249 5.271342 2.069836 -32.866947 10.311200 4.883190 
-18.243864 48.476891 -42.579857 -12.518490 -6.826160 110.629280 11.513910 6.799239 0.910710 -5.638085 3.934422 0.128761 -11.157516 -8.653563 -5.060452 18.663467 16.308331 -8.730299 12.413046 -14.960623 4.251975 -64.514626 -33.796570 30.449352 -64.565430 10.168241 13.401795 6.992188 16.005859 -49.928944 -6.427974 8.898234 2.089853 53.076893 40.388062 17.893133 65.587982 -10.204393 13.882152 -7.001954 -15.996095 70.195313 -44.907013 17.419586 1.490666 65.869194 -3.969866 -4.934762 -27.805088 -9.028275 -3.892905 -3.466216 5.223868 -5.153792 28.029518 5.290377 2.033553 -33.034267 10.310343 4.880423 
-18.028051 48.441231 -42.722164 -12.417058 -6.896106 110.697144 11.823070 6.575100 1.159199 -5.608737 3.847982 0.191573 -11.347115 -8.652881 -5.091639 18.306513 16.616129 -8.843915 12.413046 -14.960623 4.251975 -65.386078 -34.582489 29.504095 -63.868301 10.139526 13.090023 6.992188 16.005859 -51.188713 -6.427974 8.898234 2.089853 52.851597 41.264519 18.279421 65.996521 -10.212447 14.075104 -7.001954 -15.996095 70.996094 -45.654202 17.255817 1.184296 65.211037 -4.019365 -4.892219 -27.768250 -8.810644 -3.781587 -2.965070 5.102240 -4.947268 27.521599 5.290357 1.993316 -32.982029 10.067660 4.700884 
-17.821936 48.359596 -42.868233 -13.036549 -6.879614 110.788506 11.906000 7.283719 1.648573 -5.618630 3.499562 0.317034 -11.163321 -8.629720 -5.192773 17.557554 16.717556 -9.097623 12.413046 -14.960623 4.251975 -65.703773 -34.760357 29.086382 -63.782616 10.135712 13.053224 6.992188 16.005859 -51.686760 -6.427974 8.898234 2.089853 52.580208 41.996807 18.564165 66.447548 -10.216788 14.272198 -7.001954 -15.996095 71.748047 -47.140724 17.750702 0.297738 64.583313 -4.038822 -4.851395 -27.551842 -8.743690 -3.727815 -2.507881 5.777569 -4.298916 27.003006 5.291806 1.943399 -32.773342 9.657477 4.448827 
-17.586420 48.286411 -42.997715 -14.039119 -6.604676 110.798523 12.132525 8.490170 2.180786 -5.726377 3.132143 0.428016 -11.211509 -8.714588 -5.295763 17.404814 16.922688 -9.321894 12.413046 -14.960623 4.251975 -65.181015 -34.386497 29.272640 -64.319763 10.161745 13.302461 6.992188 16.005859 -50.856682 -6.427974 8.898234 2.089853 52.187965 42.667858 19.139900 66.919189 -10.215605 14.491652 -7.001954 -15.996095 72.753906 -48.734745 18.767303 -0.842745 63.945004 -4.076757 -4.810958 -26.371628 -9.472466 -4.079573 -1.755782 6.975810 -3.553066 26.362034 5.305128 1.880956 -32.475536 9.283520 4.171880 
-17.316500 48.266399 -43.160046 -14.197597 -6.548447 110.701134 12.409775 8.597619 2.575526 -5.873098 3.009260 0.521422 -11.398669 -8.782545 -5.423173 17.469219 17.215641 -9.590310 12.413046 -14.960623 4.251975 -63.409359 -33.543629 30.774080 -65.338455 10.192341 13.751555 6.992188 16.005859 -48.337147 -6.427974 8.898234 2.089853 51.713211 43.255535 19.757675 67.434334 -10.211615 14.726338 -7.001954 -15.996095 73.876953 -49.475891 18.952496 -1.291243 63.227737 -4.125370 -4.764802 -25.386711 -9.859765 -4.212428 -0.974902 7.139683 -3.155715 25.625849 5.291956 1.838748 -32.188381 9.272775 4.177908 
-17.041264 48.245125 -43.378357 -13.795006 -6.671683 110.701996 12.591593 8.170969 2.889884 -5.853570 2.885080 0.623817 -11.551872 -8.884305 -5.641257 17.167002 17.214771 -10.137937 12.413046 -14.960623 4.251975 -64.664841 -34.399158 29.608856 -64.469040 10.165152 13.363968 6.992188 16.005859 -50.387932 -6.427974 8.898234 2.089853 51.120285 43.908810 20.086185 67.926590 -10.200476 14.949281 -7.001954 -15.996095 74.960938 -49.787922 18.405552 -1.493116 62.471909 -4.155662 -4.715046 -25.321806 -9.864111 -4.207173 -0.302306 6.596843 -3.204605 24.853992 5.301719 1.760847 -32.005959 9.188512 4.112617 
-16.762272 48.219791 -43.581032 -13.766011 -6.712161 110.656242 12.757072 8.164860 3.213776 -5.716738 2.759074 0.722007 -11.740114 -8.967731 -5.783470 16.774570 17.144642 -10.571056 12.413046 -14.960623 4.251975 -65.286224 -34.787495 28.869911 -64.210831 10.152899 13.245753 6.992188 16.005859 -51.491447 -6.427974 8.898234 2.089853 50.577129 44.813431 20.345821 68.249565 -10.195421 15.106987 -7.001954 -15.996095 75.957031 -50.404335 18.279148 -2.072135 61.793583 -4.203151 -4.667942 -25.290388 -10.496245 -4.549975 0.322286 6.511130 -3.123103 24.163538 5.300469 1.703119 -31.881886 8.719358 3.808023 
-16.482029 48.160679 -43.753994 -14.188015 -6.702549 110.662491 12.797939 8.577828 3.439204 -5.882951 2.694299 0.764876 -11.717772 -8.897037 -5.793609 16.625961 17.080627 -10.584751 12.413046 -14.960623 4.251975 -65.584869 -34.122807 28.141199 -64.683540 10.172611 13.460507 6.992188 16.005859 -52.243401 -6.427974 8.898234 2.089853 50.000389 45.523613 20.917019 68.548920 -10.184532 15.244754 -7.001954 -15.996095 77.226563 -51.454369 18.622801 -2.878448 61.263443 -4.223844 -4.640030 -24.781996 -11.376283 -4.928017 0.907912 6.930664 -2.913195 23.511820 5.300997 1.637697 -31.634520 8.443568 3.622529 
-16.205854 48.050587 -43.938522 -14.752104 -6.663912 110.689850 12.775183 9.179237 3.923807 -5.961245 2.445253 0.886318 -11.659487 -8.809453 -5.893339 16.295387 17.139984 -10.796083 12.413046 -14.960623 4.251975 -65.235886 -34.168839 28.341211 -64.683540 10.172611 13.460507 6.992188 16.005859 -52.282463 -6.427974 8.898234 2.089853 49.213860 45.980839 21.259064 68.998489 -10.166735 15.455485 -7.001954 -15.996095 78.691406 -52.600788 19.050518 -3.671272 60.929379 -4.243304 -4.628603 -24.204327 -11.966819 -5.167207 1.649445 7.484851 -2.459055 22.736813 5.310145 1.569546 -31.218746 8.423627 3.622062 
-15.890270 47.962067 -44.159344 -14.981738 -6.608583 110.640770 12.777724 9.567577 4.321943 -5.677869 2.336055 0.998860 -11.856370 -9.447394 -5.920009 16.045534 17.876781 -10.954716 12.413046 -14.960623 4.251975 -64.675232 -34.805286 29.056116 -64.458153 10.164327 13.353571 6.992188 16.005859 -51.393795 -6.427974 8.898234 2.089853 48.232330 46.761753 21.466866 69.490776 -10.143343 15.680072 -7.001954 -15.996095 80.048828 -53.306858 19.217560 -4.233782 60.732723 -4.253017 -4.597425 -23.615391 -12.567480 -5.404149 2.565988 7.657859 -2.081337 21.945772 5.296658 1.535232 -30.584492 8.506982 3.655802 
-15.538716 47.931416 -44.396107 -14.809649 -6.598338 110.659843 12.826670 9.532034 4.290117 -5.687493 2.511944 0.993771 -11.821136 -10.076587 -5.819729 15.883793 18.363304 -10.818610 12.413046 -14.960623 4.251975 -64.463692 -34.898506 29.159857 -64.458153 10.164327 13.353571 6.992188 16.005859 -50.856682 -6.427974 8.898234 2.089853 47.270233 47.550041 21.878262 69.864952 -10.122165 15.856018 -7.001954 -15.996095 81.416016 -53.589985 19.002731 -4.530902 60.673908 -4.252979 -4.595381 -22.932270 -13.386449 -5.692960 3.404552 7.393641 -2.161149 21.246826 5.311059 1.441169 -30.104145 8.260718 3.510737 
-15.206869 47.883877 -44.620678 -14.785141 -6.673634 110.570694 12.786695 9.390689 4.665356 -5.912358 2.323893 1.097268 -11.332074 -9.612977 -5.982157 15.137149 18.005091 -11.121363 12.413046 -14.960623 4.251975 -63.801468 -34.973114 29.286621 -64.394409 10.163521 13.327453 6.992188 16.005859 -50.671135 -6.427974 8.898234 2.089853 46.825058 47.985840 21.753593 70.151993 -10.101046 15.982926 -7.001954 -15.996095 82.597656 -54.011654 18.905636 -4.913686 60.653870 -4.261489 -4.589058 -22.517525 -13.747630 -5.808931 4.009790 7.296994 -1.913945 20.744831 5.300399 1.400057 -30.036064 7.617223 3.139175 
-14.898477 47.739693 -44.834923 -15.293364 -6.594821 110.609558 12.682490 9.913130 5.156450 -5.863776 1.926239 1.228292 -10.919208 -9.207277 -6.189221 14.148092 17.922762 -11.542154 12.413046 -14.960623 4.251975 -63.216393 -35.472282 29.330254 -64.243507 10.155587 13.257357 6.992188 16.005859 -50.739494 -6.427974 8.898234 2.089853 46.391384 48.606884 21.523478 70.462708 -10.081822 16.132042 -7.001954 -15.996095 83.613281 -54.838074 19.187801 -5.605079 60.624500 -4.262784 -4.598347 -22.243216 -13.769425 -5.801912 4.547348 7.786773 -1.383489 20.512348 5.300968 1.380942 -30.162313 7.059915 2.792691 
